HIERARCHY
ROOT joint_Root
{
	OFFSET 0.0 0.0 0.0
	CHANNELS 6 Xposition Yposition Zposition Zrotation Xrotation Yrotation 
	JOINT Hips
	{
		OFFSET 4.5925 91.4895 -427.239
		CHANNELS 6 Xposition Yposition Zposition Zrotation Xrotation Yrotation 
		JOINT Spine
		{
			OFFSET 15.7357 0.0 0.0
			CHANNELS 6 Xposition Yposition Zposition Zrotation Xrotation Yrotation 
			JOINT Chest
			{
				OFFSET 8.98455 -0.406207 0.0
				CHANNELS 6 Xposition Yposition Zposition Zrotation Xrotation Yrotation 
				JOINT Neck
				{
					OFFSET 16.3773 0.0 0.0
					CHANNELS 6 Xposition Yposition Zposition Zrotation Xrotation Yrotation 
					JOINT Head
					{
						OFFSET 6.45672 0.0 0.0
						CHANNELS 6 Xposition Yposition Zposition Zrotation Xrotation Yrotation 
						End Site
						{
							OFFSET 0.0 0.0 0.0
						}
					}
				}
				JOINT Shoulder_L
				{
					OFFSET 12.9942 -0.242716 4.98039
					CHANNELS 6 Xposition Yposition Zposition Zrotation Xrotation Yrotation 
					JOINT UpperArm_L
					{
						OFFSET 5.34809 0.0 0.0
						CHANNELS 6 Xposition Yposition Zposition Zrotation Xrotation Yrotation 
						JOINT LowerArm_L
						{
							OFFSET 24.3286 1.87007e-05 0.0
							CHANNELS 6 Xposition Yposition Zposition Zrotation Xrotation Yrotation 
							JOINT Hand_L
							{
								OFFSET 22.2916 0.0 0.0
								CHANNELS 6 Xposition Yposition Zposition Zrotation Xrotation Yrotation 
								End Site
								{
									OFFSET 0.0 0.0 0.0
								}
							}
						}
					}
				}
				JOINT Shoulder_R
				{
					OFFSET 12.9945 -0.242716 -4.98039
					CHANNELS 6 Xposition Yposition Zposition Zrotation Xrotation Yrotation 
					JOINT UpperArm_R
					{
						OFFSET -5.34813 0.0 0.0
						CHANNELS 6 Xposition Yposition Zposition Zrotation Xrotation Yrotation 
						JOINT LowerArm_R
						{
							OFFSET -24.3289 0.000322201 0.0
							CHANNELS 6 Xposition Yposition Zposition Zrotation Xrotation Yrotation 
							JOINT Hand_R
							{
								OFFSET -22.2915 -0.000108084 0.0
								CHANNELS 6 Xposition Yposition Zposition Zrotation Xrotation Yrotation 
								End Site
								{
									OFFSET 0.0 0.0 0.0
								}
							}
						}
					}
				}
			}
		}
		JOINT UpperLeg_L
		{
			OFFSET -2.19248 -6.46944 0.0
			CHANNELS 6 Xposition Yposition Zposition Zrotation Xrotation Yrotation 
			JOINT LowerLeg_L
			{
				OFFSET 39.0811 0.0 -1.23785e-05
				CHANNELS 6 Xposition Yposition Zposition Zrotation Xrotation Yrotation 
				JOINT Foot_L
				{
					OFFSET 40.9854 0.0 -1.26872e-05
					CHANNELS 6 Xposition Yposition Zposition Zrotation Xrotation Yrotation 
					JOINT Toes_L
					{
						OFFSET 11.7543 0.0 0.0
						CHANNELS 6 Xposition Yposition Zposition Zrotation Xrotation Yrotation 
						End Site
						{
							OFFSET 0.0 0.0 0.0
						}
					}
				}
			}
		}
		JOINT UpperLeg_R
		{
			OFFSET -2.19251 6.46944 0.0
			CHANNELS 6 Xposition Yposition Zposition Zrotation Xrotation Yrotation 
			JOINT LowerLeg_R
			{
				OFFSET -39.0811 -0.00228153 -0.0401928
				CHANNELS 6 Xposition Yposition Zposition Zrotation Xrotation Yrotation 
				JOINT Foot_R
				{
					OFFSET -40.9854 0.0 0.0
					CHANNELS 6 Xposition Yposition Zposition Zrotation Xrotation Yrotation 
					JOINT Toes_R
					{
						OFFSET -11.7543 0.0 0.0
						CHANNELS 6 Xposition Yposition Zposition Zrotation Xrotation Yrotation 
						End Site
						{
							OFFSET 0.0 0.0 0.0
						}
					}
				}
			}
		}
	}
}
MOTION
Frames:	7
Frame Time:	0.0333333
0.000000 0.000000 0.000000 0.000000 0.000000 -0.000000 -0.778780 90.633700 -2.566920 89.573600 -3.831410 12.652300 15.735700 0.000005 -0.000001 86.941300 78.624700 -87.506800 8.984550 -0.406207 -0.000000 14.948700 -1.233480 -0.969939 16.377300 -0.000001 -0.000001 10.075600 -3.823740 2.142660 6.456720 -0.000001 -0.000000 0.135844 -3.087940 0.839887 12.994200 -0.242716 4.980390 -91.481300 6.728920 -77.554800 5.348090 -0.000007 -0.000001 -57.777500 36.819300 -25.596800 24.328600 0.000019 0.000005 9.351220 22.999200 -22.853700 22.291600 -0.000001 0.000005 11.956800 5.305540 -0.083626 12.994500 -0.242716 -4.980390 88.871600 11.770800 -84.484900 -5.348130 -0.000001 -0.000004 -58.619100 35.490200 -20.810900 -24.328900 0.000322 -0.000009 3.157960 7.216770 -23.717200 -22.291500 -0.000108 -0.000004 14.522900 5.419990 -3.598690 -2.192480 -6.469440 -0.000000 -174.684000 -13.399000 -0.352554 39.081100 -0.000007 -0.000012 -0.170478 0.266059 32.650100 40.985400 -0.000006 -0.000013 0.915183 5.057610 -69.393500 11.754300 -0.000000 0.000003 -0.000188 -0.001759 -16.644000 -2.192510 6.469440 -0.000001 173.796000 19.916800 -178.783000 -39.081100 -0.002282 -0.040193 -0.200275 0.326948 31.908500 -40.985400 0.000008 0.000006 4.484540 15.144300 -70.306700 -11.754300 -0.000006 -0.000006 -0.002618 -0.036202 -18.045300
0.000000 0.000000 0.000000 0.000000 0.000000 -0.000000 -0.827977 90.639900 -2.607380 89.575500 -3.799970 12.666400 15.735700 0.000005 -0.000001 86.890000 78.621100 -87.467100 8.984550 -0.406207 -0.000000 14.954700 -1.254710 -0.990329 16.377300 -0.000001 -0.000001 10.116200 -3.813950 2.210050 6.456720 -0.000001 -0.000000 0.122593 -2.982690 0.829518 12.994200 -0.242716 4.980390 -91.469000 6.665220 -77.541400 5.348090 -0.000007 -0.000001 -58.015300 35.709700 -25.338400 24.328600 0.000019 0.000005 9.894910 23.099100 -23.970700 22.291600 -0.000001 0.000005 12.010700 5.306500 -0.110705 12.994500 -0.242716 -4.980390 88.852400 11.748600 -84.381300 -5.348130 -0.000001 -0.000004 -58.604200 34.846600 -20.708900 -24.328900 0.000322 -0.000009 3.287310 7.039570 -25.118300 -22.291500 -0.000108 -0.000004 14.585400 5.422190 -3.673050 -2.192480 -6.469440 -0.000000 -174.638000 -13.431700 -0.357288 39.081100 -0.000007 -0.000012 -0.170224 0.265923 32.624600 40.985400 -0.000006 -0.000013 0.909305 5.162850 -69.342000 11.754300 -0.000000 0.000003 -0.000196 -0.001824 -16.646400 -2.192510 6.469440 -0.000001 173.818000 19.996800 -178.781000 -39.081100 -0.002282 -0.040193 -0.196965 0.321836 31.892200 -40.985400 0.000008 0.000006 4.537440 15.178400 -70.288200 -11.754300 -0.000006 -0.000006 -0.002601 -0.035998 -18.037000
0.000000 0.000000 0.000000 0.000000 0.000000 -0.000000 -0.881618 90.640800 -2.655960 89.573400 -3.720120 12.635400 15.735700 0.000005 -0.000001 86.793000 78.646400 -87.373000 8.984550 -0.406207 -0.000000 14.902000 -1.289900 -0.992145 16.377300 -0.000001 -0.000001 10.222900 -3.769080 2.206570 6.456720 -0.000001 -0.000000 0.111827 -2.901030 0.871764 12.994200 -0.242716 4.980390 -91.453300 6.598690 -77.550500 5.348090 -0.000007 -0.000001 -58.205100 34.297300 -25.125700 24.328600 0.000019 0.000005 10.373400 22.695500 -25.381600 22.291600 -0.000001 0.000005 12.346400 5.303150 -0.016465 12.994500 -0.242716 -4.980390 88.831400 11.700100 -84.255800 -5.348130 -0.000001 -0.000004 -58.484200 34.190400 -20.660100 -24.328900 0.000322 -0.000009 3.325710 6.603450 -26.816900 -22.291500 -0.000108 -0.000004 14.861600 5.426170 -3.807910 -2.192480 -6.469440 -0.000000 -174.613000 -13.415500 -0.441058 39.081100 -0.000007 -0.000012 -0.171409 0.267682 32.633600 40.985400 -0.000006 -0.000013 0.891136 5.223100 -69.295300 11.754300 -0.000000 0.000003 -0.000187 -0.001752 -16.643800 -2.192510 6.469440 -0.000001 173.855000 20.098500 -178.838000 -39.081100 -0.002282 -0.040193 -0.195981 0.320129 31.902400 -40.985400 0.000008 0.000006 4.578990 15.169900 -70.278700 -11.754300 -0.000006 -0.000006 -0.002780 -0.038089 -18.122000
0.000000 0.000000 0.000000 0.000000 0.000000 -0.000000 -0.930670 90.649700 -2.723140 89.585300 -3.666420 12.598200 15.735700 0.000005 -0.000001 86.708700 78.671600 -87.300300 8.984550 -0.406207 -0.000000 14.849600 -1.320520 -1.011870 16.377300 -0.000001 -0.000001 10.337500 -3.692450 2.191420 6.456720 -0.000001 -0.000000 0.068150 -2.766180 0.926014 12.994200 -0.242716 4.980390 -91.443300 6.517540 -77.484500 5.348090 -0.000007 -0.000001 -58.130300 32.829400 -25.202200 24.328600 0.000019 0.000005 10.656600 21.650200 -27.023000 22.291600 -0.000001 0.000005 12.724100 5.300540 0.057489 12.994500 -0.242716 -4.980390 88.815600 11.632700 -84.145500 -5.348130 -0.000001 -0.000004 -58.386700 33.243300 -20.716000 -24.328900 0.000322 -0.000009 3.392510 6.208630 -28.736900 -22.291500 -0.000108 -0.000004 14.921100 5.428710 -3.894720 -2.192480 -6.469440 -0.000000 -174.613000 -13.378000 -0.519465 39.081100 -0.000007 -0.000012 -0.172455 0.269693 32.597100 40.985400 -0.000006 -0.000013 0.863374 5.256170 -69.216700 11.754300 -0.000000 0.000003 -0.000189 -0.001762 -16.644100 -2.192510 6.469440 -0.000001 173.904000 20.135900 -178.912000 -39.081100 -0.002282 -0.040193 -0.195600 0.319722 31.885900 -40.985400 0.000008 0.000006 4.608410 15.134600 -70.238500 -11.754300 -0.000006 -0.000006 -0.002767 -0.037933 -18.115700
0.000000 0.000000 0.000000 0.000000 0.000000 -0.000000 -0.971619 90.651800 -2.786090 89.617300 -3.650790 12.593700 15.735700 0.000005 -0.000001 86.731600 78.694500 -87.333600 8.984550 -0.406207 -0.000000 14.804300 -1.309510 -1.034610 16.377300 -0.000001 -0.000001 10.491100 -3.602950 2.181450 6.456720 -0.000001 -0.000000 0.019067 -2.641600 0.915425 12.994200 -0.242716 4.980390 -91.431100 6.444500 -77.451600 5.348090 -0.000007 -0.000001 -57.816000 31.391200 -25.497900 24.328600 0.000019 0.000005 11.170200 20.876100 -28.992700 22.291600 -0.000001 0.000005 13.146800 5.300850 0.048702 12.994500 -0.242716 -4.980390 88.802700 11.540600 -84.036300 -5.348130 -0.000001 -0.000004 -58.167100 32.254700 -20.918700 -24.328900 0.000322 -0.000009 3.467130 5.831080 -30.818000 -22.291500 -0.000108 -0.000004 15.218200 5.431670 -3.996410 -2.192480 -6.469440 -0.000000 -174.631000 -13.371100 -0.564042 39.081100 -0.000007 -0.000012 -0.169494 0.265232 32.580500 40.985400 -0.000006 -0.000013 0.843856 5.276120 -69.159100 11.754300 -0.000000 0.000003 -0.000179 -0.001687 -16.641400 -2.192510 6.469440 -0.000001 173.929000 20.133600 -178.981000 -39.081100 -0.002282 -0.040193 -0.192406 0.314233 31.914800 -40.985400 0.000008 0.000006 4.645470 15.108600 -70.221900 -11.754300 -0.000006 -0.000006 -0.002808 -0.038411 -18.135100
0.000000 0.000000 0.000000 0.000000 0.000000 -0.000000 -1.025260 90.658000 -2.824280 89.629900 -3.612560 12.633100 15.735700 0.000005 -0.000001 86.729000 78.705400 -87.333200 8.984550 -0.406207 -0.000000 14.782400 -1.309340 -1.039300 16.377300 -0.000001 -0.000001 10.649900 -3.523750 2.142770 6.456720 -0.000001 -0.000000 -0.054924 -2.554150 0.944904 12.994200 -0.242716 4.980390 -91.412800 6.333220 -77.397500 5.348090 -0.000007 -0.000001 -57.517500 29.792900 -25.910500 24.328600 0.000019 0.000005 12.068000 20.588800 -31.298200 22.291600 -0.000001 0.000005 13.498700 5.300900 0.047328 12.994500 -0.242716 -4.980390 88.788300 11.452300 -83.919200 -5.348130 -0.000001 -0.000004 -57.777500 31.309900 -21.298500 -24.328900 0.000322 -0.000009 3.760030 5.784450 -33.113800 -22.291500 -0.000108 -0.000004 15.525600 5.432860 -4.037870 -2.192480 -6.469440 -0.000000 -174.589000 -13.406200 -0.540062 39.081100 -0.000007 -0.000012 -0.169404 0.265436 32.546800 40.985400 -0.000006 -0.000013 0.829497 5.356830 -69.101400 11.754300 -0.000000 0.000003 -0.000179 -0.001687 -16.641400 -2.192510 6.469440 -0.000001 173.946000 20.166300 -178.953000 -39.081100 -0.002282 -0.040193 -0.190225 0.310911 31.899900 -40.985400 0.000008 0.000006 4.684100 15.088300 -70.205900 -11.754300 -0.000006 -0.000006 -0.002709 -0.037260 -18.088300
0.000000 0.000000 0.000000 0.000000 0.000000 -0.000000 -1.065930 90.656600 -2.895790 89.646300 -3.568980 12.587100 15.735700 0.000005 -0.000001 86.735000 78.745900 -87.334100 8.984550 -0.406207 -0.000000 14.701600 -1.301910 -1.031050 16.377300 -0.000001 -0.000001 10.785000 -3.467160 2.118580 6.456720 -0.000001 -0.000000 -0.123040 -2.498420 0.926971 12.994200 -0.242716 4.980390 -91.391500 6.217900 -77.359300 5.348090 -0.000007 -0.000001 -57.187700 28.160900 -26.499300 24.328600 0.000019 0.000005 12.973200 20.217100 -33.688400 22.291600 -0.000001 0.000005 14.115700 5.298990 0.100409 12.994500 -0.242716 -4.980390 88.783000 11.324200 -83.825400 -5.348130 -0.000001 -0.000004 -57.346300 30.303000 -21.814200 -24.328900 0.000322 -0.000009 4.267860 5.997920 -35.540100 -22.291500 -0.000108 -0.000004 15.978400 5.433980 -4.076410 -2.192480 -6.469440 -0.000000 -174.596000 -13.395900 -0.653469 39.081100 -0.000007 -0.000012 -0.171266 0.268207 32.560900 40.985400 -0.000006 -0.000013 0.815769 5.404070 -69.047800 11.754300 -0.000000 0.000003 -0.000200 -0.001853 -16.647400 -2.192510 6.469440 -0.000001 174.002000 20.150000 -179.072000 -39.081100 -0.002282 -0.040193 -0.190319 0.310590 31.938900 -40.985400 0.000008 0.000006 4.699310 15.009000 -70.186800 -11.754300 -0.000006 -0.000006 -0.002874 -0.039165 -18.165800
